<svg width="25" height="25" viewBox="0 0 25 25" fill="none" xmlns="http://www.w3.org/2000/svg">
<path d="M0 12.5C0 8.30236 0 6.20354 0.768086 4.57956C1.55942 2.90642 2.90642 1.55942 4.57956 0.768086C6.20354 0 8.30236 0 12.5 0C16.6976 0 18.7965 0 20.4204 0.768086C22.0936 1.55942 23.4406 2.90642 24.2319 4.57956C25 6.20354 25 8.30236 25 12.5C25 16.6976 25 18.7965 24.2319 20.4204C23.4406 22.0936 22.0936 23.4406 20.4204 24.2319C18.7965 25 16.6976 25 12.5 25C8.30236 25 6.20354 25 4.57956 24.2319C2.90642 23.4406 1.55942 22.0936 0.768086 20.4204C0 18.7965 0 16.6976 0 12.5Z" fill="black" fill-opacity="0.2"/>
<path d="M16.25 11.5625H13.4375V8.75C13.4375 8.40488 13.1576 8.125 12.8125 8.125H12.1875C11.8424 8.125 11.5625 8.40488 11.5625 8.75V11.5625H8.75C8.40488 11.5625 8.125 11.8424 8.125 12.1875V12.8125C8.125 13.1576 8.40488 13.4375 8.75 13.4375H11.5625V16.25C11.5625 16.5951 11.8424 16.875 12.1875 16.875H12.8125C13.1576 16.875 13.4375 16.5951 13.4375 16.25V13.4375H16.25C16.5951 13.4375 16.875 13.1576 16.875 12.8125V12.1875C16.875 11.8424 16.5951 11.5625 16.25 11.5625Z" fill="white"/>
</svg>
