<svg width="25" height="25" viewBox="0 0 25 25" fill="none" xmlns="http://www.w3.org/2000/svg">
<path d="M0 12.5C0 8.30236 0 6.20354 0.768086 4.57956C1.55942 2.90642 2.90642 1.55942 4.57956 0.768086C6.20354 0 8.30236 0 12.5 0C16.6976 0 18.7965 0 20.4204 0.768086C22.0936 1.55942 23.4406 2.90642 24.2319 4.57956C25 6.20354 25 8.30236 25 12.5C25 16.6976 25 18.7965 24.2319 20.4204C23.4406 22.0936 22.0936 23.4406 20.4204 24.2319C18.7965 25 16.6976 25 12.5 25C8.30236 25 6.20354 25 4.57956 24.2319C2.90642 23.4406 1.55942 22.0936 0.768086 20.4204C0 18.7965 0 16.6976 0 12.5Z" fill="#98DDE3"/>
<path d="M18.6223 9.71611L11.1223 17.2161C11.057 17.2817 10.9794 17.3337 10.8939 17.3692C10.8084 17.4046 10.7168 17.4229 10.6243 17.4229C10.5317 17.4229 10.4401 17.4046 10.3546 17.3692C10.2692 17.3337 10.1915 17.2817 10.1262 17.2161L6.84497 13.9349C6.77957 13.8695 6.72768 13.7918 6.69229 13.7064C6.65689 13.6209 6.63867 13.5293 6.63867 13.4368C6.63867 13.3443 6.65689 13.2527 6.69229 13.1673C6.72768 13.0818 6.77957 13.0042 6.84497 12.9388C6.91037 12.8734 6.98802 12.8215 7.07348 12.7861C7.15893 12.7507 7.25052 12.7325 7.34302 12.7325C7.43551 12.7325 7.5271 12.7507 7.61256 12.7861C7.69801 12.8215 7.77566 12.8734 7.84106 12.9388L10.6249 15.7226L17.6274 8.72119C17.7595 8.5891 17.9386 8.51489 18.1254 8.51489C18.3122 8.51489 18.4914 8.5891 18.6235 8.72119C18.7556 8.85328 18.8298 9.03243 18.8298 9.21924C18.8298 9.40604 18.7556 9.58519 18.6235 9.71728L18.6223 9.71611Z" fill="white"/>
</svg>
